<?xml version="1.0" encoding="UTF-8"?>
<svg version="1.1" xmlns="http://www.w3.org/2000/svg" width="512" height="512">
<path d="M0 0 C2.94111296 1.40219576 5.85234221 2.84157546 8.74755859 4.33666992 C9.61265297 4.78282402 9.61265297 4.78282402 10.495224 5.23799133 C12.37373942 6.20824291 14.25022321 7.18234195 16.12646484 8.15698242 C16.7727887 8.49178619 17.41911255 8.82658997 18.08502197 9.17153931 C27.36038434 13.97796224 36.56840826 18.89301548 45.7199707 23.93188477 C52.16376891 27.47303371 58.66072276 30.89930049 65.18896484 34.28198242 C72.50641571 38.07560443 79.77791731 41.93748655 87.00146484 45.90698242 C96.38998994 51.06351297 105.8426659 56.09230466 115.31396484 61.09448242 C130.46985206 69.10016168 145.58761709 77.17377393 160.68896484 85.28198242 C174.66513835 92.78251553 188.64851526 100.26856333 202.65911865 107.70455933 C208.00389164 110.54151411 213.34734984 113.3809449 218.6907959 116.22039795 C220.70462857 117.29030423 222.71876561 118.35963605 224.73291016 119.42895508 C227.98311154 121.15500413 231.23144861 122.88451728 234.47851562 124.61645508 C236.26237456 125.56699231 238.04791137 126.51437858 239.83349609 127.46166992 C250.87691024 133.35940723 250.87691024 133.35940723 254.68896484 136.28198242 C254.68896484 136.94198242 254.68896484 137.60198242 254.68896484 138.28198242 C253.58423828 138.85303711 252.47951172 139.4240918 251.34130859 140.01245117 C240.85835715 145.46454483 230.52125865 151.13585868 220.25708008 156.98974609 C219.32839111 157.51930908 218.39970215 158.04887207 217.44287109 158.59448242 C216.21032593 159.30024414 216.21032593 159.30024414 214.95288086 160.02026367 C212.89028988 161.16978057 210.80411428 162.23363768 208.68896484 163.28198242 C208.56223278 170.04447429 208.4746425 176.80666025 208.41430664 183.57006836 C208.38915578 185.87096602 208.35503088 188.17178374 208.31176758 190.47241211 C208.25114337 193.77892775 208.22276044 197.08438763 208.20068359 200.39135742 C208.17487717 201.42065369 208.14907074 202.44994995 208.1224823 203.51043701 C207.97824451 209.26962022 207.97824451 209.26962022 211.14355469 213.83056641 C211.98354004 214.30953369 212.82352539 214.78850098 213.68896484 215.28198242 C216.11636472 219.50456548 216.84666841 223.2306253 216.12646484 228.03198242 C214.35249081 232.04270633 212.46681969 234.94859129 208.93896484 237.59448242 C204.15585157 239.05598926 200.06827688 238.75943659 195.43896484 237.15698242 C191.985128 234.80209366 190.48463675 233.08051914 188.68896484 229.28198242 C187.87193476 224.15470178 188.13882682 220.40190625 190.43896484 215.71948242 C192.68896484 213.28198242 192.68896484 213.28198242 196.68896484 212.28198242 C196.68896484 198.42198242 196.68896484 184.56198242 196.68896484 170.28198242 C176.64398137 182.30751985 176.64398137 182.30751985 156.96240234 194.91088867 C154.68896484 196.28198242 154.68896484 196.28198242 152.68896484 196.28198242 C152.71037537 196.83464279 152.73178589 197.38730316 152.75384521 197.95671082 C152.9728402 203.71494076 153.16277032 209.47361196 153.3359375 215.23339844 C153.40434535 217.38208565 153.48013222 219.53055124 153.56347656 221.67871094 C153.68208021 224.76883616 153.77401643 227.85878981 153.86083984 230.94995117 C153.92461823 232.38772163 153.92461823 232.38772163 153.98968506 233.85453796 C154.08668881 238.15301081 154.12720627 240.55811194 151.85986328 244.30322266 C126.89469857 267.05880745 77.79554322 265.86811721 45.68896484 268.28198242 C43.94450073 268.4288147 43.94450073 268.4288147 42.16479492 268.57861328 C28.01073754 269.64859091 13.81243346 269.48169212 -0.37353516 269.46948242 C-1.06601223 269.46921555 -1.7584893 269.46894867 -2.47195053 269.46867371 C-22.80899564 269.45882307 -43.05957548 269.3888582 -63.31103516 267.28198242 C-64.28547577 267.18370148 -64.28547577 267.18370148 -65.27960205 267.08343506 C-137.66333422 259.77932269 -137.66333422 259.77932269 -154.43115234 244.32836914 C-157.179018 239.87539932 -156.70998067 236.06885315 -156.48291016 230.94995117 C-156.45505432 229.95820389 -156.42719849 228.9664566 -156.39849854 227.94465637 C-156.30532631 224.78531177 -156.18357206 221.62781101 -156.06103516 218.46948242 C-155.99274078 216.32435941 -155.92631277 214.17917611 -155.86181641 212.03393555 C-155.69985186 206.78239329 -155.51442809 201.53207456 -155.31103516 196.28198242 C-156.01703857 196.01804687 -156.72304199 195.75411133 -157.45043945 195.48217773 C-160.47962573 194.21124834 -163.23183711 192.71435449 -166.08056641 191.07885742 C-167.20430664 190.4354541 -168.32804687 189.79205078 -169.48583984 189.12915039 C-170.69848463 188.43023263 -171.9110477 187.73117308 -173.12353516 187.03198242 C-174.3841737 186.30800635 -175.64491732 185.58421321 -176.90576172 184.8605957 C-188.74208977 178.06042613 -200.53118475 171.17940767 -212.31103516 164.28198242 C-227.26429774 155.53214358 -242.24954605 146.84440095 -257.31103516 138.28198242 C-255.81471421 134.07857702 -253.44210899 132.97620273 -249.54541016 131.03198242 C-248.96443573 130.73737625 -248.3834613 130.44277008 -247.78488159 130.13923645 C-246.53422627 129.50647218 -245.28089168 128.87898127 -244.02520752 128.2562561 C-240.6947747 126.6042865 -237.38354996 124.9144449 -234.06884766 123.23120117 C-233.07013138 122.72625374 -233.07013138 122.72625374 -232.05123901 122.21110535 C-226.2814649 119.28808129 -220.59682583 116.22331012 -214.93603516 113.09448242 C-207.61007208 109.05833211 -200.23751316 105.13009538 -192.81103516 101.28198242 C-185.49358429 97.48836042 -178.22208269 93.62647829 -170.99853516 89.65698242 C-161.61001006 84.50045187 -152.1573341 79.47166018 -142.68603516 74.46948242 C-127.53014794 66.46380316 -112.41238291 58.39019092 -97.31103516 50.28198242 C-82.65985305 42.41919535 -67.99843457 34.57685993 -53.31103516 26.78198242 C-43.39224392 21.51737127 -33.47731571 16.24571049 -23.57641602 10.94750977 C-21.80274015 9.99848539 -20.02857496 9.05037569 -18.25439453 8.10229492 C-17.17867187 7.52608398 -16.10294922 6.94987305 -14.99462891 6.35620117 C-13.99931152 5.82687988 -13.00399414 5.29755859 -11.97851562 4.75219727 C-9.69793328 3.49522611 -7.53331773 2.14792036 -5.34619141 0.73901367 C-2.31103516 -0.71801758 -2.31103516 -0.71801758 0 0 Z M-149.31103516 154.28198242 C-151.37029197 157.37086764 -151.55007256 157.99134169 -151.43603516 161.46948242 C-151.39478516 162.72760742 -151.35353516 163.98573242 -151.31103516 165.28198242 C-150.76576172 164.9184668 -150.22048828 164.55495117 -149.65869141 164.18041992 C-148.05652513 163.11230907 -146.45216619 162.04748333 -144.84619141 160.98510742 C-143.31647992 159.957443 -141.79901921 158.910696 -140.30712891 157.82885742 C-85.610181 118.86664795 4.75838544 123.14322726 67.87646484 133.08666992 C97.24613137 138.0459479 124.57142594 147.45597541 148.68896484 165.28198242 C149.23647005 161.44944599 149.63638331 157.86437284 147.58740234 154.44213867 C116.18324394 121.56832754 59.82987864 114.31487861 16.8449707 113.07348633 C10.98026286 112.95697039 5.11710166 112.9478218 -0.74853516 112.96948242 C-1.78430695 112.97130524 -2.82007874 112.97312805 -3.88723755 112.9750061 C-53.23529265 113.12022118 -111.7140547 118.58791663 -149.31103516 154.28198242 Z M-111.87353516 226.71948242 C-113.36252319 227.00915894 -113.36252319 227.00915894 -114.8815918 227.3046875 C-127.84559715 229.85718195 -127.84559715 229.85718195 -138.31103516 237.28198242 C-137.3424646 239.78544621 -136.62008734 241.07366757 -134.36962891 242.59057617 C-96.09717581 259.07453883 -47.23416925 256.6594164 -6.16357422 256.54272461 C-2.12074671 256.5313312 1.92181727 256.53812851 5.96463585 256.5496006 C33.05830946 256.61476181 60.16259405 255.89843316 87.06396484 252.40698242 C87.73624115 252.32205536 88.40851746 252.2371283 89.10116577 252.14962769 C112.27780584 249.75619647 112.27780584 249.75619647 133.68896484 241.28198242 C135.02022323 239.23878157 135.02022323 239.23878157 135.68896484 237.28198242 C129.09864049 229.97181096 118.56360922 228.5311219 109.25146484 226.71948242 C108.17437256 226.5089624 107.09728027 226.29844238 105.98754883 226.08154297 C72.22625408 219.75691899 37.36146857 218.91382298 3.08447266 219.02124023 C-0.57825868 219.0326335 -4.24069896 219.0258339 -7.90342045 219.01435566 C-42.57440541 218.9226426 -77.77923784 220.05567818 -111.87353516 226.71948242 Z " fill="#FFFFFF" transform="translate(257.31103515625,97.718017578125)"/>
<path d="M0 0 C1.98644002 0.52045186 3.97288005 1.04090373 5.95932007 1.56135559 C8.6207803 2.1334368 10.93107878 2.01728682 13.625 1.6875 C14.50414062 1.58824219 15.38328125 1.48898437 16.2890625 1.38671875 C19.19980399 0.9714977 22.09979645 0.48336726 25 0 C25 20.13 25 40.26 25 61 C22.03 60.67 19.06 60.34 16 60 C6.90876166 62.55192655 1.08956477 69.44276746 -4 77 C-4.33 77 -4.66 77 -5 77 C-5.15802224 67.51948052 -4.68207605 58.17567457 -3.90625 48.73046875 C-3.79370278 47.31418841 -3.68161023 45.89787187 -3.56994629 44.48152161 C-3.27853194 40.80044037 -2.98105275 37.11987507 -2.68218994 33.43939209 C-2.37681946 29.66497201 -2.07735002 25.89008393 -1.77734375 22.11523438 C-1.19058236 14.74302637 -0.59739577 7.37135472 0 0 Z " fill="#FFFFFF" transform="translate(448,338)"/>
</svg>
